<?xml version="1.0" encoding="utf-8" ?>
<svg baseProfile="full" height="637.79526" version="1.1" width="3968.5038400000003" xmlns="http://www.w3.org/2000/svg" xmlns:ev="http://www.w3.org/2001/xml-events" xmlns:xlink="http://www.w3.org/1999/xlink"><defs /><rect fill="white" height="637.79526" opacity="1" stroke-width="0" width="3968.5038400000003" x="0.0" y="0.0" /><g><g id="vlines" stroke="lightgray"><line x1="0.0" x2="0.0" y1="70.86614" y2="602.36219" /><rect fill="#76e9ff" height="531.49605" opacity="0.8" stroke="lightgray" stroke-width="0" width="7.086614000000001" x="14.173228000000002" y="70.86614" /><text fill="black" font-family="Arial" font-size="12" stroke="black" stroke-width="0" x="3.543307" y="67.322833">T 07</text><line x1="35.43307" x2="35.43307" y1="70.86614" y2="602.36219" /><text fill="black" font-family="Arial" font-size="12" stroke="black" stroke-width="0" x="38.976377" y="67.322833">W 08</text><line x1="70.86614" x2="70.86614" y1="70.86614" y2="602.36219" /><text fill="black" font-family="Arial" font-size="12" stroke="black" stroke-width="0" x="74.409447" y="67.322833">T 09</text><line x1="106.29921" x2="106.29921" y1="70.86614" y2="602.36219" /><text fill="black" font-family="Arial" font-size="12" stroke="black" stroke-width="0" x="109.842517" y="67.322833">F 10</text><line x1="141.73228" x2="141.73228" y1="70.86614" y2="602.36219" /><rect fill="gray" height="531.49605" opacity="0.7" stroke="lightgray" stroke-width="1" width="35.43307" x="141.73228" y="70.86614" /><text fill="black" font-family="Arial" font-size="12" stroke="black" stroke-width="0" x="145.275587" y="67.322833">S 11</text><line x1="177.16535" x2="177.16535" y1="70.86614" y2="602.36219" /><rect fill="gray" height="531.49605" opacity="0.7" stroke="lightgray" stroke-width="1" width="35.43307" x="177.16535" y="70.86614" /><text fill="black" font-family="Arial" font-size="12" stroke="black" stroke-width="0" x="180.708657" y="67.322833">S 12</text><line x1="212.59842" x2="212.59842" y1="70.86614" y2="602.36219" /><text fill="black" font-family="Arial" font-size="12" stroke="black" stroke-width="0" x="216.141727" y="67.322833">M 13</text><text fill="black" font-family="Arial" font-size="16" font-weight="bold" stroke="black" stroke-width="0" x="216.141727" y="53.149605">03</text><line x1="248.03149000000002" x2="248.03149000000002" y1="70.86614" y2="602.36219" /><text fill="black" font-family="Arial" font-size="12" stroke="black" stroke-width="0" x="251.574797" y="67.322833">T 14</text><line x1="283.46456" x2="283.46456" y1="70.86614" y2="602.36219" /><text fill="black" font-family="Arial" font-size="12" stroke="black" stroke-width="0" x="287.007867" y="67.322833">W 15</text><line x1="318.89763" x2="318.89763" y1="70.86614" y2="602.36219" /><text fill="black" font-family="Arial" font-size="12" stroke="black" stroke-width="0" x="322.440937" y="67.322833">T 16</text><line x1="354.3307" x2="354.3307" y1="70.86614" y2="602.36219" /><text fill="black" font-family="Arial" font-size="12" stroke="black" stroke-width="0" x="357.874007" y="67.322833">F 17</text><line x1="389.76377" x2="389.76377" y1="70.86614" y2="602.36219" /><rect fill="gray" height="531.49605" opacity="0.7" stroke="lightgray" stroke-width="1" width="35.43307" x="389.76377" y="70.86614" /><text fill="black" font-family="Arial" font-size="12" stroke="black" stroke-width="0" x="393.307077" y="67.322833">S 18</text><line x1="425.19684" x2="425.19684" y1="70.86614" y2="602.36219" /><rect fill="gray" height="531.49605" opacity="0.7" stroke="lightgray" stroke-width="1" width="35.43307" x="425.19684" y="70.86614" /><text fill="black" font-family="Arial" font-size="12" stroke="black" stroke-width="0" x="428.740147" y="67.322833">S 19</text><line x1="460.62991" x2="460.62991" y1="70.86614" y2="602.36219" /><rect fill="gray" height="531.49605" opacity="0.7" stroke="lightgray" stroke-width="1" width="35.43307" x="460.62991" y="70.86614" /><text fill="black" font-family="Arial" font-size="12" stroke="black" stroke-width="0" x="464.173217" y="67.322833">M 20</text><text fill="black" font-family="Arial" font-size="16" font-weight="bold" stroke="black" stroke-width="0" x="464.173217" y="53.149605">04</text><line x1="496.06298000000004" x2="496.06298000000004" y1="70.86614" y2="602.36219" /><text fill="black" font-family="Arial" font-size="12" stroke="black" stroke-width="0" x="499.606287" y="67.322833">T 21</text><line x1="531.49605" x2="531.49605" y1="70.86614" y2="602.36219" /><text fill="black" font-family="Arial" font-size="12" stroke="black" stroke-width="0" x="535.039357" y="67.322833">W 22</text><line x1="566.92912" x2="566.92912" y1="70.86614" y2="602.36219" /><text fill="black" font-family="Arial" font-size="12" stroke="black" stroke-width="0" x="570.472427" y="67.322833">T 23</text><line x1="602.36219" x2="602.36219" y1="70.86614" y2="602.36219" /><text fill="black" font-family="Arial" font-size="12" stroke="black" stroke-width="0" x="605.905497" y="67.322833">F 24</text><line x1="637.79526" x2="637.79526" y1="70.86614" y2="602.36219" /><rect fill="gray" height="531.49605" opacity="0.7" stroke="lightgray" stroke-width="1" width="35.43307" x="637.79526" y="70.86614" /><text fill="black" font-family="Arial" font-size="12" stroke="black" stroke-width="0" x="641.338567" y="67.322833">S 25</text><line x1="673.22833" x2="673.22833" y1="70.86614" y2="602.36219" /><rect fill="gray" height="531.49605" opacity="0.7" stroke="lightgray" stroke-width="1" width="35.43307" x="673.22833" y="70.86614" /><text fill="black" font-family="Arial" font-size="12" stroke="black" stroke-width="0" x="676.7716369999999" y="67.322833">S 26</text><line x1="708.6614" x2="708.6614" y1="70.86614" y2="602.36219" /><text fill="black" font-family="Arial" font-size="12" stroke="black" stroke-width="0" x="712.204707" y="67.322833">M 27</text><text fill="black" font-family="Arial" font-size="16" font-weight="bold" stroke="black" stroke-width="0" x="712.204707" y="53.149605">05</text><line x1="744.09447" x2="744.09447" y1="70.86614" y2="602.36219" /><text fill="black" font-family="Arial" font-size="12" stroke="black" stroke-width="0" x="747.637777" y="67.322833">T 28</text><line x1="779.52754" x2="779.52754" y1="70.86614" y2="602.36219" /><text fill="black" font-family="Arial" font-size="12" stroke="black" stroke-width="0" x="783.070847" y="67.322833">W 29</text><line x1="814.96061" x2="814.96061" y1="70.86614" y2="602.36219" /><text fill="black" font-family="Arial" font-size="12" stroke="black" stroke-width="0" x="818.503917" y="67.322833">T 30</text><line x1="850.39368" x2="850.39368" y1="70.86614" y2="602.36219" /><text fill="black" font-family="Arial" font-size="12" stroke="black" stroke-width="0" x="853.936987" y="67.322833">F 31</text><line x1="885.8267500000001" x2="885.8267500000001" y1="70.86614" y2="602.36219" /><rect fill="gray" height="531.49605" opacity="0.7" stroke="lightgray" stroke-width="1" width="35.43307" x="885.8267500000001" y="70.86614" /><text fill="black" font-family="Arial" font-size="12" stroke="black" stroke-width="0" x="889.370057" y="67.322833">S 01</text><text fill="#800000" font-family="Arial" font-size="18" font-weight="bold" stroke="#800000" stroke-width="0" x="889.370057" y="35.43307">February</text><line x1="921.25982" x2="921.25982" y1="70.86614" y2="602.36219" /><rect fill="gray" height="531.49605" opacity="0.7" stroke="lightgray" stroke-width="1" width="35.43307" x="921.25982" y="70.86614" /><text fill="black" font-family="Arial" font-size="12" stroke="black" stroke-width="0" x="924.803127" y="67.322833">S 02</text><line x1="956.69289" x2="956.69289" y1="70.86614" y2="602.36219" /><text fill="black" font-family="Arial" font-size="12" stroke="black" stroke-width="0" x="960.236197" y="67.322833">M 03</text><text fill="black" font-family="Arial" font-size="16" font-weight="bold" stroke="black" stroke-width="0" x="960.236197" y="53.149605">06</text><line x1="992.1259600000001" x2="992.1259600000001" y1="70.86614" y2="602.36219" /><text fill="black" font-family="Arial" font-size="12" stroke="black" stroke-width="0" x="995.669267" y="67.322833">T 04</text><line x1="1027.5590300000001" x2="1027.5590300000001" y1="70.86614" y2="602.36219" /><text fill="black" font-family="Arial" font-size="12" stroke="black" stroke-width="0" x="1031.102337" y="67.322833">W 05</text><line x1="1062.9921" x2="1062.9921" y1="70.86614" y2="602.36219" /><text fill="black" font-family="Arial" font-size="12" stroke="black" stroke-width="0" x="1066.535407" y="67.322833">T 06</text><line x1="1098.42517" x2="1098.42517" y1="70.86614" y2="602.36219" /><text fill="black" font-family="Arial" font-size="12" stroke="black" stroke-width="0" x="1101.968477" y="67.322833">F 07</text><line x1="1133.85824" x2="1133.85824" y1="70.86614" y2="602.36219" /><rect fill="gray" height="531.49605" opacity="0.7" stroke="lightgray" stroke-width="1" width="35.43307" x="1133.85824" y="70.86614" /><text fill="black" font-family="Arial" font-size="12" stroke="black" stroke-width="0" x="1137.401547" y="67.322833">S 08</text><line x1="1169.29131" x2="1169.29131" y1="70.86614" y2="602.36219" /><rect fill="gray" height="531.49605" opacity="0.7" stroke="lightgray" stroke-width="1" width="35.43307" x="1169.29131" y="70.86614" /><text fill="black" font-family="Arial" font-size="12" stroke="black" stroke-width="0" x="1172.834617" y="67.322833">S 09</text><line x1="1204.72438" x2="1204.72438" y1="70.86614" y2="602.36219" /><text fill="black" font-family="Arial" font-size="12" stroke="black" stroke-width="0" x="1208.267687" y="67.322833">M 10</text><text fill="black" font-family="Arial" font-size="16" font-weight="bold" stroke="black" stroke-width="0" x="1208.267687" y="53.149605">07</text><line x1="1240.15745" x2="1240.15745" y1="70.86614" y2="602.36219" /><text fill="black" font-family="Arial" font-size="12" stroke="black" stroke-width="0" x="1243.700757" y="67.322833">T 11</text><line x1="1275.59052" x2="1275.59052" y1="70.86614" y2="602.36219" /><text fill="black" font-family="Arial" font-size="12" stroke="black" stroke-width="0" x="1279.1338269999999" y="67.322833">W 12</text><line x1="1311.02359" x2="1311.02359" y1="70.86614" y2="602.36219" /><text fill="black" font-family="Arial" font-size="12" stroke="black" stroke-width="0" x="1314.566897" y="67.322833">T 13</text><line x1="1346.45666" x2="1346.45666" y1="70.86614" y2="602.36219" /><text fill="black" font-family="Arial" font-size="12" stroke="black" stroke-width="0" x="1349.999967" y="67.322833">F 14</text><line x1="1381.88973" x2="1381.88973" y1="70.86614" y2="602.36219" /><rect fill="gray" height="531.49605" opacity="0.7" stroke="lightgray" stroke-width="1" width="35.43307" x="1381.88973" y="70.86614" /><text fill="black" font-family="Arial" font-size="12" stroke="black" stroke-width="0" x="1385.433037" y="67.322833">S 15</text><line x1="1417.3228" x2="1417.3228" y1="70.86614" y2="602.36219" /><rect fill="gray" height="531.49605" opacity="0.7" stroke="lightgray" stroke-width="1" width="35.43307" x="1417.3228" y="70.86614" /><text fill="black" font-family="Arial" font-size="12" stroke="black" stroke-width="0" x="1420.866107" y="67.322833">S 16</text><line x1="1452.75587" x2="1452.75587" y1="70.86614" y2="602.36219" /><rect fill="gray" height="531.49605" opacity="0.7" stroke="lightgray" stroke-width="1" width="35.43307" x="1452.75587" y="70.86614" /><text fill="black" font-family="Arial" font-size="12" stroke="black" stroke-width="0" x="1456.299177" y="67.322833">M 17</text><text fill="black" font-family="Arial" font-size="16" font-weight="bold" stroke="black" stroke-width="0" x="1456.299177" y="53.149605">08</text><line x1="1488.18894" x2="1488.18894" y1="70.86614" y2="602.36219" /><text fill="black" font-family="Arial" font-size="12" stroke="black" stroke-width="0" x="1491.732247" y="67.322833">T 18</text><line x1="1523.62201" x2="1523.62201" y1="70.86614" y2="602.36219" /><text fill="black" font-family="Arial" font-size="12" stroke="black" stroke-width="0" x="1527.165317" y="67.322833">W 19</text><line x1="1559.05508" x2="1559.05508" y1="70.86614" y2="602.36219" /><text fill="black" font-family="Arial" font-size="12" stroke="black" stroke-width="0" x="1562.598387" y="67.322833">T 20</text><line x1="1594.4881500000001" x2="1594.4881500000001" y1="70.86614" y2="602.36219" /><text fill="black" font-family="Arial" font-size="12" stroke="black" stroke-width="0" x="1598.031457" y="67.322833">F 21</text><line x1="1629.92122" x2="1629.92122" y1="70.86614" y2="602.36219" /><rect fill="gray" height="531.49605" opacity="0.7" stroke="lightgray" stroke-width="1" width="35.43307" x="1629.92122" y="70.86614" /><text fill="black" font-family="Arial" font-size="12" stroke="black" stroke-width="0" x="1633.464527" y="67.322833">S 22</text><line x1="1665.35429" x2="1665.35429" y1="70.86614" y2="602.36219" /><rect fill="gray" height="531.49605" opacity="0.7" stroke="lightgray" stroke-width="1" width="35.43307" x="1665.35429" y="70.86614" /><text fill="black" font-family="Arial" font-size="12" stroke="black" stroke-width="0" x="1668.897597" y="67.322833">S 23</text><line x1="1700.78736" x2="1700.78736" y1="70.86614" y2="602.36219" /><text fill="black" font-family="Arial" font-size="12" stroke="black" stroke-width="0" x="1704.330667" y="67.322833">M 24</text><text fill="black" font-family="Arial" font-size="16" font-weight="bold" stroke="black" stroke-width="0" x="1704.330667" y="53.149605">09</text><line x1="1736.22043" x2="1736.22043" y1="70.86614" y2="602.36219" /><text fill="black" font-family="Arial" font-size="12" stroke="black" stroke-width="0" x="1739.763737" y="67.322833">T 25</text><line x1="1771.6535000000001" x2="1771.6535000000001" y1="70.86614" y2="602.36219" /><text fill="black" font-family="Arial" font-size="12" stroke="black" stroke-width="0" x="1775.196807" y="67.322833">W 26</text><line x1="1807.08657" x2="1807.08657" y1="70.86614" y2="602.36219" /><text fill="black" font-family="Arial" font-size="12" stroke="black" stroke-width="0" x="1810.629877" y="67.322833">T 27</text><line x1="1842.51964" x2="1842.51964" y1="70.86614" y2="602.36219" /><text fill="black" font-family="Arial" font-size="12" stroke="black" stroke-width="0" x="1846.062947" y="67.322833">F 28</text><line x1="1877.95271" x2="1877.95271" y1="70.86614" y2="602.36219" /><rect fill="gray" height="531.49605" opacity="0.7" stroke="lightgray" stroke-width="1" width="35.43307" x="1877.95271" y="70.86614" /><text fill="black" font-family="Arial" font-size="12" stroke="black" stroke-width="0" x="1881.496017" y="67.322833">S 29</text><line x1="1913.38578" x2="1913.38578" y1="70.86614" y2="602.36219" /><rect fill="gray" height="531.49605" opacity="0.7" stroke="lightgray" stroke-width="1" width="35.43307" x="1913.38578" y="70.86614" /><text fill="black" font-family="Arial" font-size="12" stroke="black" stroke-width="0" x="1916.929087" y="67.322833">S 01</text><text fill="#800000" font-family="Arial" font-size="18" font-weight="bold" stroke="#800000" stroke-width="0" x="1916.929087" y="35.43307">March</text><line x1="1948.81885" x2="1948.81885" y1="70.86614" y2="602.36219" /><text fill="black" font-family="Arial" font-size="12" stroke="black" stroke-width="0" x="1952.362157" y="67.322833">M 02</text><text fill="black" font-family="Arial" font-size="16" font-weight="bold" stroke="black" stroke-width="0" x="1952.362157" y="53.149605">10</text><line x1="1984.2519200000002" x2="1984.2519200000002" y1="70.86614" y2="602.36219" /><text fill="black" font-family="Arial" font-size="12" stroke="black" stroke-width="0" x="1987.795227" y="67.322833">T 03</text><line x1="2019.68499" x2="2019.68499" y1="70.86614" y2="602.36219" /><text fill="black" font-family="Arial" font-size="12" stroke="black" stroke-width="0" x="2023.2282969999999" y="67.322833">W 04</text><line x1="2055.1180600000002" x2="2055.1180600000002" y1="70.86614" y2="602.36219" /><text fill="black" font-family="Arial" font-size="12" stroke="black" stroke-width="0" x="2058.661367" y="67.322833">T 05</text><line x1="2090.55113" x2="2090.55113" y1="70.86614" y2="602.36219" /><text fill="black" font-family="Arial" font-size="12" stroke="black" stroke-width="0" x="2094.094437" y="67.322833">F 06</text><line x1="2125.9842" x2="2125.9842" y1="70.86614" y2="602.36219" /><rect fill="gray" height="531.49605" opacity="0.7" stroke="lightgray" stroke-width="1" width="35.43307" x="2125.9842" y="70.86614" /><text fill="black" font-family="Arial" font-size="12" stroke="black" stroke-width="0" x="2129.527507" y="67.322833">S 07</text><line x1="2161.41727" x2="2161.41727" y1="70.86614" y2="602.36219" /><rect fill="gray" height="531.49605" opacity="0.7" stroke="lightgray" stroke-width="1" width="35.43307" x="2161.41727" y="70.86614" /><text fill="black" font-family="Arial" font-size="12" stroke="black" stroke-width="0" x="2164.960577" y="67.322833">S 08</text><line x1="2196.85034" x2="2196.85034" y1="70.86614" y2="602.36219" /><rect fill="gray" height="531.49605" opacity="0.7" stroke="lightgray" stroke-width="1" width="35.43307" x="2196.85034" y="70.86614" /><text fill="black" font-family="Arial" font-size="12" stroke="black" stroke-width="0" x="2200.393647" y="67.322833">M 09</text><text fill="black" font-family="Arial" font-size="16" font-weight="bold" stroke="black" stroke-width="0" x="2200.393647" y="53.149605">11</text><line x1="2232.28341" x2="2232.28341" y1="70.86614" y2="602.36219" /><rect fill="gray" height="531.49605" opacity="0.7" stroke="lightgray" stroke-width="1" width="35.43307" x="2232.28341" y="70.86614" /><text fill="black" font-family="Arial" font-size="12" stroke="black" stroke-width="0" x="2235.826717" y="67.322833">T 10</text><line x1="2267.71648" x2="2267.71648" y1="70.86614" y2="602.36219" /><rect fill="gray" height="531.49605" opacity="0.7" stroke="lightgray" stroke-width="1" width="35.43307" x="2267.71648" y="70.86614" /><text fill="black" font-family="Arial" font-size="12" stroke="black" stroke-width="0" x="2271.259787" y="67.322833">W 11</text><line x1="2303.14955" x2="2303.14955" y1="70.86614" y2="602.36219" /><rect fill="gray" height="531.49605" opacity="0.7" stroke="lightgray" stroke-width="1" width="35.43307" x="2303.14955" y="70.86614" /><text fill="black" font-family="Arial" font-size="12" stroke="black" stroke-width="0" x="2306.692857" y="67.322833">T 12</text><line x1="2338.58262" x2="2338.58262" y1="70.86614" y2="602.36219" /><rect fill="gray" height="531.49605" opacity="0.7" stroke="lightgray" stroke-width="1" width="35.43307" x="2338.58262" y="70.86614" /><text fill="black" font-family="Arial" font-size="12" stroke="black" stroke-width="0" x="2342.125927" y="67.322833">F 13</text><line x1="2374.01569" x2="2374.01569" y1="70.86614" y2="602.36219" /><rect fill="gray" height="531.49605" opacity="0.7" stroke="lightgray" stroke-width="1" width="35.43307" x="2374.01569" y="70.86614" /><text fill="black" font-family="Arial" font-size="12" stroke="black" stroke-width="0" x="2377.558997" y="67.322833">S 14</text><line x1="2409.44876" x2="2409.44876" y1="70.86614" y2="602.36219" /><rect fill="gray" height="531.49605" opacity="0.7" stroke="lightgray" stroke-width="1" width="35.43307" x="2409.44876" y="70.86614" /><text fill="black" font-family="Arial" font-size="12" stroke="black" stroke-width="0" x="2412.992067" y="67.322833">S 15</text><line x1="2444.8818300000003" x2="2444.8818300000003" y1="70.86614" y2="602.36219" /><text fill="black" font-family="Arial" font-size="12" stroke="black" stroke-width="0" x="2448.425137" y="67.322833">M 16</text><text fill="black" font-family="Arial" font-size="16" font-weight="bold" stroke="black" stroke-width="0" x="2448.425137" y="53.149605">12</text><line x1="2480.3149" x2="2480.3149" y1="70.86614" y2="602.36219" /><text fill="black" font-family="Arial" font-size="12" stroke="black" stroke-width="0" x="2483.8582069999998" y="67.322833">T 17</text><line x1="2515.74797" x2="2515.74797" y1="70.86614" y2="602.36219" /><text fill="black" font-family="Arial" font-size="12" stroke="black" stroke-width="0" x="2519.291277" y="67.322833">W 18</text><line x1="2551.18104" x2="2551.18104" y1="70.86614" y2="602.36219" /><text fill="black" font-family="Arial" font-size="12" stroke="black" stroke-width="0" x="2554.724347" y="67.322833">T 19</text><line x1="2586.61411" x2="2586.61411" y1="70.86614" y2="602.36219" /><text fill="black" font-family="Arial" font-size="12" stroke="black" stroke-width="0" x="2590.157417" y="67.322833">F 20</text><line x1="2622.04718" x2="2622.04718" y1="70.86614" y2="602.36219" /><rect fill="gray" height="531.49605" opacity="0.7" stroke="lightgray" stroke-width="1" width="35.43307" x="2622.04718" y="70.86614" /><text fill="black" font-family="Arial" font-size="12" stroke="black" stroke-width="0" x="2625.590487" y="67.322833">S 21</text><line x1="2657.48025" x2="2657.48025" y1="70.86614" y2="602.36219" /><rect fill="gray" height="531.49605" opacity="0.7" stroke="lightgray" stroke-width="1" width="35.43307" x="2657.48025" y="70.86614" /><text fill="black" font-family="Arial" font-size="12" stroke="black" stroke-width="0" x="2661.023557" y="67.322833">S 22</text><line x1="2692.91332" x2="2692.91332" y1="70.86614" y2="602.36219" /><text fill="black" font-family="Arial" font-size="12" stroke="black" stroke-width="0" x="2696.456627" y="67.322833">M 23</text><text fill="black" font-family="Arial" font-size="16" font-weight="bold" stroke="black" stroke-width="0" x="2696.456627" y="53.149605">13</text><line x1="2728.34639" x2="2728.34639" y1="70.86614" y2="602.36219" /><text fill="black" font-family="Arial" font-size="12" stroke="black" stroke-width="0" x="2731.889697" y="67.322833">T 24</text><line x1="2763.77946" x2="2763.77946" y1="70.86614" y2="602.36219" /><text fill="black" font-family="Arial" font-size="12" stroke="black" stroke-width="0" x="2767.322767" y="67.322833">W 25</text><line x1="2799.2125300000002" x2="2799.2125300000002" y1="70.86614" y2="602.36219" /><text fill="black" font-family="Arial" font-size="12" stroke="black" stroke-width="0" x="2802.755837" y="67.322833">T 26</text><line x1="2834.6456" x2="2834.6456" y1="70.86614" y2="602.36219" /><text fill="black" font-family="Arial" font-size="12" stroke="black" stroke-width="0" x="2838.188907" y="67.322833">F 27</text><line x1="2870.07867" x2="2870.07867" y1="70.86614" y2="602.36219" /><rect fill="gray" height="531.49605" opacity="0.7" stroke="lightgray" stroke-width="1" width="35.43307" x="2870.07867" y="70.86614" /><text fill="black" font-family="Arial" font-size="12" stroke="black" stroke-width="0" x="2873.621977" y="67.322833">S 28</text><line x1="2905.51174" x2="2905.51174" y1="70.86614" y2="602.36219" /><rect fill="gray" height="531.49605" opacity="0.7" stroke="lightgray" stroke-width="1" width="35.43307" x="2905.51174" y="70.86614" /><text fill="black" font-family="Arial" font-size="12" stroke="black" stroke-width="0" x="2909.055047" y="67.322833">S 29</text><line x1="2940.94481" x2="2940.94481" y1="70.86614" y2="602.36219" /><text fill="black" font-family="Arial" font-size="12" stroke="black" stroke-width="0" x="2944.488117" y="67.322833">M 30</text><text fill="black" font-family="Arial" font-size="16" font-weight="bold" stroke="black" stroke-width="0" x="2944.488117" y="53.149605">14</text><line x1="2976.37788" x2="2976.37788" y1="70.86614" y2="602.36219" /><text fill="black" font-family="Arial" font-size="12" stroke="black" stroke-width="0" x="2979.921187" y="67.322833">T 31</text><line x1="3011.81095" x2="3011.81095" y1="70.86614" y2="602.36219" /><text fill="black" font-family="Arial" font-size="12" stroke="black" stroke-width="0" x="3015.354257" y="67.322833">W 01</text><text fill="#800000" font-family="Arial" font-size="18" font-weight="bold" stroke="#800000" stroke-width="0" x="3015.354257" y="35.43307">April</text><line x1="3047.24402" x2="3047.24402" y1="70.86614" y2="602.36219" /><text fill="black" font-family="Arial" font-size="12" stroke="black" stroke-width="0" x="3050.787327" y="67.322833">T 02</text><line x1="3082.67709" x2="3082.67709" y1="70.86614" y2="602.36219" /><text fill="black" font-family="Arial" font-size="12" stroke="black" stroke-width="0" x="3086.220397" y="67.322833">F 03</text><line x1="3118.11016" x2="3118.11016" y1="70.86614" y2="602.36219" /><rect fill="gray" height="531.49605" opacity="0.7" stroke="lightgray" stroke-width="1" width="35.43307" x="3118.11016" y="70.86614" /><text fill="black" font-family="Arial" font-size="12" stroke="black" stroke-width="0" x="3121.653467" y="67.322833">S 04</text><line x1="3153.54323" x2="3153.54323" y1="70.86614" y2="602.36219" /><rect fill="gray" height="531.49605" opacity="0.7" stroke="lightgray" stroke-width="1" width="35.43307" x="3153.54323" y="70.86614" /><text fill="black" font-family="Arial" font-size="12" stroke="black" stroke-width="0" x="3157.086537" y="67.322833">S 05</text><line x1="3188.9763000000003" x2="3188.9763000000003" y1="70.86614" y2="602.36219" /><text fill="black" font-family="Arial" font-size="12" stroke="black" stroke-width="0" x="3192.519607" y="67.322833">M 06</text><text fill="black" font-family="Arial" font-size="16" font-weight="bold" stroke="black" stroke-width="0" x="3192.519607" y="53.149605">15</text><line x1="3224.40937" x2="3224.40937" y1="70.86614" y2="602.36219" /><text fill="black" font-family="Arial" font-size="12" stroke="black" stroke-width="0" x="3227.9526769999998" y="67.322833">T 07</text><line x1="3259.84244" x2="3259.84244" y1="70.86614" y2="602.36219" /><text fill="black" font-family="Arial" font-size="12" stroke="black" stroke-width="0" x="3263.385747" y="67.322833">W 08</text><line x1="3295.27551" x2="3295.27551" y1="70.86614" y2="602.36219" /><text fill="black" font-family="Arial" font-size="12" stroke="black" stroke-width="0" x="3298.818817" y="67.322833">T 09</text><line x1="3330.70858" x2="3330.70858" y1="70.86614" y2="602.36219" /><text fill="black" font-family="Arial" font-size="12" stroke="black" stroke-width="0" x="3334.251887" y="67.322833">F 10</text><line x1="3366.14165" x2="3366.14165" y1="70.86614" y2="602.36219" /><rect fill="gray" height="531.49605" opacity="0.7" stroke="lightgray" stroke-width="1" width="35.43307" x="3366.14165" y="70.86614" /><text fill="black" font-family="Arial" font-size="12" stroke="black" stroke-width="0" x="3369.684957" y="67.322833">S 11</text><line x1="3401.57472" x2="3401.57472" y1="70.86614" y2="602.36219" /><rect fill="gray" height="531.49605" opacity="0.7" stroke="lightgray" stroke-width="1" width="35.43307" x="3401.57472" y="70.86614" /><text fill="black" font-family="Arial" font-size="12" stroke="black" stroke-width="0" x="3405.118027" y="67.322833">S 12</text><line x1="3437.00779" x2="3437.00779" y1="70.86614" y2="602.36219" /><text fill="black" font-family="Arial" font-size="12" stroke="black" stroke-width="0" x="3440.551097" y="67.322833">M 13</text><text fill="black" font-family="Arial" font-size="16" font-weight="bold" stroke="black" stroke-width="0" x="3440.551097" y="53.149605">16</text><line x1="3472.44086" x2="3472.44086" y1="70.86614" y2="602.36219" /><text fill="black" font-family="Arial" font-size="12" stroke="black" stroke-width="0" x="3475.984167" y="67.322833">T 14</text><line x1="3507.87393" x2="3507.87393" y1="70.86614" y2="602.36219" /><text fill="black" font-family="Arial" font-size="12" stroke="black" stroke-width="0" x="3511.417237" y="67.322833">W 15</text><line x1="3543.3070000000002" x2="3543.3070000000002" y1="70.86614" y2="602.36219" /><text fill="black" font-family="Arial" font-size="12" stroke="black" stroke-width="0" x="3546.850307" y="67.322833">T 16</text><line x1="3578.7400700000003" x2="3578.7400700000003" y1="70.86614" y2="602.36219" /><text fill="black" font-family="Arial" font-size="12" stroke="black" stroke-width="0" x="3582.283377" y="67.322833">F 17</text><line x1="3614.17314" x2="3614.17314" y1="70.86614" y2="602.36219" /><rect fill="gray" height="531.49605" opacity="0.7" stroke="lightgray" stroke-width="1" width="35.43307" x="3614.17314" y="70.86614" /><text fill="black" font-family="Arial" font-size="12" stroke="black" stroke-width="0" x="3617.716447" y="67.322833">S 18</text><line x1="3649.60621" x2="3649.60621" y1="70.86614" y2="602.36219" /><rect fill="gray" height="531.49605" opacity="0.7" stroke="lightgray" stroke-width="1" width="35.43307" x="3649.60621" y="70.86614" /><text fill="black" font-family="Arial" font-size="12" stroke="black" stroke-width="0" x="3653.149517" y="67.322833">S 19</text><line x1="3685.03928" x2="3685.03928" y1="70.86614" y2="602.36219" /><text fill="black" font-family="Arial" font-size="12" stroke="black" stroke-width="0" x="3688.582587" y="67.322833">M 20</text><text fill="black" font-family="Arial" font-size="16" font-weight="bold" stroke="black" stroke-width="0" x="3688.582587" y="53.149605">17</text><line x1="3720.47235" x2="3720.47235" y1="70.86614" y2="602.36219" /><text fill="black" font-family="Arial" font-size="12" stroke="black" stroke-width="0" x="3724.015657" y="67.322833">T 21</text><line x1="3755.90542" x2="3755.90542" y1="70.86614" y2="602.36219" /><text fill="black" font-family="Arial" font-size="12" stroke="black" stroke-width="0" x="3759.448727" y="67.322833">W 22</text><line x1="3791.33849" x2="3791.33849" y1="70.86614" y2="602.36219" /><rect fill="gray" height="531.49605" opacity="0.7" stroke="lightgray" stroke-width="1" width="35.43307" x="3791.33849" y="70.86614" /><text fill="black" font-family="Arial" font-size="12" stroke="black" stroke-width="0" x="3794.881797" y="67.322833">T 23</text><line x1="3826.77156" x2="3826.77156" y1="70.86614" y2="602.36219" /><text fill="black" font-family="Arial" font-size="12" stroke="black" stroke-width="0" x="3830.314867" y="67.322833">F 24</text><line x1="3862.20463" x2="3862.20463" y1="70.86614" y2="602.36219" /><rect fill="gray" height="531.49605" opacity="0.7" stroke="lightgray" stroke-width="1" width="35.43307" x="3862.20463" y="70.86614" /><text fill="black" font-family="Arial" font-size="12" stroke="black" stroke-width="0" x="3865.747937" y="67.322833">S 25</text><line x1="3897.6377" x2="3897.6377" y1="70.86614" y2="602.36219" /><rect fill="gray" height="531.49605" opacity="0.7" stroke="lightgray" stroke-width="1" width="35.43307" x="3897.6377" y="70.86614" /><text fill="black" font-family="Arial" font-size="12" stroke="black" stroke-width="0" x="3901.181007" y="67.322833">S 26</text><line x1="3933.0707700000003" x2="3933.0707700000003" y1="70.86614" y2="602.36219" /><text fill="black" font-family="Arial" font-size="12" stroke="black" stroke-width="0" x="3936.614077" y="67.322833">M 27</text><text fill="black" font-family="Arial" font-size="16" font-weight="bold" stroke="black" stroke-width="0" x="3936.614077" y="53.149605">18</text><line x1="3968.5038400000003" x2="3968.5038400000003" y1="70.86614" y2="602.36219" /></g><g id="hlines" stroke="lightgray"><line x1="0.0" x2="3968.5038400000003" y1="70.86614" y2="70.86614" /><line x1="0.0" x2="3968.5038400000003" y1="106.29921" y2="106.29921" /><line x1="0.0" x2="3968.5038400000003" y1="141.73228" y2="141.73228" /><line x1="0.0" x2="3968.5038400000003" y1="177.16535" y2="177.16535" /><line x1="0.0" x2="3968.5038400000003" y1="212.59842" y2="212.59842" /><line x1="0.0" x2="3968.5038400000003" y1="248.03149000000002" y2="248.03149000000002" /><line x1="0.0" x2="3968.5038400000003" y1="283.46456" y2="283.46456" /><line x1="0.0" x2="3968.5038400000003" y1="318.89763" y2="318.89763" /><line x1="0.0" x2="3968.5038400000003" y1="354.3307" y2="354.3307" /><line x1="0.0" x2="3968.5038400000003" y1="389.76377" y2="389.76377" /><line x1="0.0" x2="3968.5038400000003" y1="425.19684" y2="425.19684" /><line x1="0.0" x2="3968.5038400000003" y1="460.62991" y2="460.62991" /><line x1="0.0" x2="3968.5038400000003" y1="496.06298000000004" y2="496.06298000000004" /><line x1="0.0" x2="3968.5038400000003" y1="531.49605" y2="531.49605" /><line x1="0.0" x2="3968.5038400000003" y1="566.92912" y2="566.92912" /><line x1="0.0" x2="3968.5038400000003" y1="602.36219" y2="602.36219" /></g><line stroke="black" x1="0.0" x2="3968.5038400000003" y1="70.86614" y2="70.86614" /><line stroke="black" x1="0.0" x2="3968.5038400000003" y1="602.36219" y2="602.36219" /></g><g><g><text fill="black" font-family="Arial" font-size="18" stroke="black" stroke-width="0" x="10.629921" y="95.669289">Sp2020 EW309 0111 0311</text><rect fill="purple" height="510.23620800000003" opacity="0.5" stroke="lightgray" stroke-width="0" width="7.086614000000001" x="2.8346456" y="88.582675" /><g><g id="Course_Intro"><rect fill="#FFFF90" height="28.346456" opacity="0.85" stroke="#FFFF90" stroke-width="2" width="28.346456" x="3.543307" y="109.842517" /><rect fill="#909090" height="10.629921" opacity="0.2" stroke="#FFFF90" stroke-width="1" width="28.346456" x="3.543307" y="127.559052" /><text fill="black" font-family="Arial" font-size="15" stroke="black" stroke-width="0" x="7.086614" y="124.015745">Course Intro</text></g><g id="Problem_Statement"><rect fill="#FFFF90" height="28.346456" opacity="0.85" stroke="#FFFF90" stroke-width="2" width="240.944876" x="38.976377" y="145.275587" /><rect fill="#909090" height="10.629921" opacity="0.2" stroke="#FFFF90" stroke-width="1" width="240.944876" x="38.976377" y="162.992122" /><text fill="black" font-family="Arial" font-size="15" stroke="black" stroke-width="0" x="42.519684" y="159.448815">Problem Statement</text></g><g id="Computer_vision"><rect fill="#FFFF90" height="28.346456" opacity="0.85" stroke="#FFFF90" stroke-width="2" width="276.377946" x="287.007867" y="180.708657" /><rect fill="#909090" height="10.629921" opacity="0.2" stroke="#FFFF90" stroke-width="1" width="276.377946" x="287.007867" y="198.425192" /><rect fill="#0000FF" height="14.173228" opacity="0.35" stroke="#FFFF90" stroke-width="1" width="17.716535" x="287.007867" y="180.708657" /><text fill="black" font-family="Arial" font-size="15" stroke="black" stroke-width="0" x="290.551174" y="194.881885">Computer vision</text></g><g id="Nerf_gun_analysis"><rect fill="#FFFF90" height="28.346456" opacity="0.85" stroke="#FFFF90" stroke-width="2" width="240.944876" x="499.606287" y="216.141727" /><rect fill="#909090" height="10.629921" opacity="0.2" stroke="#FFFF90" stroke-width="1" width="240.944876" x="499.606287" y="233.858262" /><rect fill="#0000FF" height="14.173228" opacity="0.35" stroke="#FFFF90" stroke-width="1" width="17.716535" x="499.606287" y="216.141727" /><text fill="black" font-family="Arial" font-size="15" stroke="black" stroke-width="0" x="503.149594" y="230.314955">Nerf gun analysis</text></g><g id="Firing_circuit_development"><rect fill="#FFFF90" height="28.346456" opacity="0.85" stroke="#FFFF90" stroke-width="2" width="488.976366" x="818.503917" y="251.574797" /><rect fill="#909090" height="10.629921" opacity="0.2" stroke="#FFFF90" stroke-width="1" width="488.976366" x="818.503917" y="269.291332" /><text fill="black" font-family="Arial" font-size="15" stroke="black" stroke-width="0" x="822.047224" y="265.748025">Firing circuit development</text></g><g id="Turret_subsystem"><rect fill="#FFFF90" height="28.346456" opacity="0.85" stroke="#FFFF90" stroke-width="2" width="524.409436" x="1208.267687" y="287.007867" /><rect fill="#909090" height="10.629921" opacity="0.2" stroke="#FFFF90" stroke-width="1" width="524.409436" x="1208.267687" y="304.724402" /><text fill="black" font-family="Arial" font-size="15" stroke="black" stroke-width="0" x="1211.810994" y="301.18109499999997">Turret subsystem</text></g><g id="Turret_system_modeling"><rect fill="#FFFF90" height="28.346456" opacity="0.85" stroke="#FFFF90" stroke-width="2" width="170.078736" x="1952.362157" y="322.440937" /><rect fill="#909090" height="10.629921" opacity="0.2" stroke="#FFFF90" stroke-width="1" width="170.078736" x="1952.362157" y="340.157472" /><text fill="black" font-family="Arial" font-size="15" stroke="black" stroke-width="0" x="1955.905464" y="336.614165">Turret system modeling</text></g><g id="Turret_position_control"><rect fill="#FFFF90" height="28.346456" opacity="0.85" stroke="#FFFF90" stroke-width="2" width="418.110226" x="2448.425137" y="357.874007" /><rect fill="#909090" height="10.629921" opacity="0.2" stroke="#FFFF90" stroke-width="1" width="418.110226" x="2448.425137" y="375.59054199999997" /><text fill="black" font-family="Arial" font-size="15" stroke="black" stroke-width="0" x="2451.968444" y="372.047235">Turret position control</text></g><g id="Ballistics"><rect fill="#FFFF90" height="28.346456" opacity="0.85" stroke="#FFFF90" stroke-width="2" width="418.110226" x="2944.488117" y="393.307077" /><rect fill="#909090" height="10.629921" opacity="0.2" stroke="#FFFF90" stroke-width="1" width="418.110226" x="2944.488117" y="411.023612" /><rect fill="#0000FF" height="14.173228" opacity="0.35" stroke="#FFFF90" stroke-width="1" width="17.716535" x="2944.488117" y="393.307077" /><text fill="black" font-family="Arial" font-size="15" stroke="black" stroke-width="0" x="2948.031424" y="407.480305">Ballistics</text></g><g id="System_integration"><rect fill="#FFFF90" height="28.346456" opacity="0.85" stroke="#FFFF90" stroke-width="2" width="418.110226" x="3440.551097" y="428.740147" /><rect fill="#909090" height="10.629921" opacity="0.2" stroke="#FFFF90" stroke-width="1" width="418.110226" x="3440.551097" y="446.456682" /><rect fill="#0000FF" height="14.173228" opacity="0.35" stroke="#FFFF90" stroke-width="1" width="17.716535" x="3440.551097" y="428.740147" /><text fill="black" font-family="Arial" font-size="15" stroke="black" stroke-width="0" x="3444.094404" y="442.913375">System integration</text></g><g id="Firing_subsystem_demo"><polygon fill="#FF3030" opacity="0.85" points="3454.724325,467.716524 3465.354246,478.346445 3454.724325,488.976366 3444.094404,478.346445" stroke="#FF3030" stroke-width="2" /><text fill="black" font-family="Arial" font-size="15" stroke="black" stroke-width="0" x="3444.094404" y="478.346445">Firing subsystem demo</text></g><g id="Final_demo"><polygon fill="#FF3030" opacity="0.85" points="3950.787305,538.582664 3961.417226,549.212585 3950.787305,559.842506 3940.157384,549.212585" stroke="#FF3030" stroke-width="2" /><text fill="black" font-family="Arial" font-size="15" stroke="black" stroke-width="0" x="3940.157384" y="549.212585">Final demo</text></g></g></g><g><g><line stroke="black" stroke-dasharray="5,3" x1="276.377946" x2="283.46456" y1="159.448815" y2="159.448815" /><marker id="id1" markerHeight="10" markerWidth="10" refX="5" refY="5"><circle cx="5" cy="5" fill="#000000" opacity="0.5" r="5" stroke-width="0" /></marker><line marker-end="url(#id1)" stroke="black" stroke-dasharray="5,3" x1="283.46456" x2="283.46456" y1="159.448815" y2="194.881885" /></g><g><line stroke="black" stroke-dasharray="5,3" x1="737.007856" x2="814.96061" y1="230.314955" y2="230.314955" /><marker id="id2" markerHeight="10" markerWidth="10" refX="5" refY="5"><circle cx="5" cy="5" fill="#000000" opacity="0.5" r="5" stroke-width="0" /></marker><line marker-end="url(#id2)" stroke="black" stroke-dasharray="5,3" x1="814.96061" x2="814.96061" y1="230.314955" y2="265.748025" /></g><g><line stroke="black" stroke-dasharray="5,3" x1="1729.133816" x2="1948.8188499999999" y1="301.18109499999997" y2="301.18109499999997" /><marker id="id3" markerHeight="10" markerWidth="10" refX="5" refY="5"><circle cx="5" cy="5" fill="#000000" opacity="0.5" r="5" stroke-width="0" /></marker><line marker-end="url(#id3)" stroke="black" stroke-dasharray="5,3" x1="1948.8188499999999" x2="1948.8188499999999" y1="301.18109499999997" y2="336.614165" /></g><g><line stroke="black" stroke-dasharray="5,3" x1="2118.897586" x2="2444.88183" y1="336.614165" y2="336.614165" /><marker id="id4" markerHeight="10" markerWidth="10" refX="5" refY="5"><circle cx="5" cy="5" fill="#000000" opacity="0.5" r="5" stroke-width="0" /></marker><line marker-end="url(#id4)" stroke="black" stroke-dasharray="5,3" x1="2444.88183" x2="2444.88183" y1="336.614165" y2="372.047235" /></g><g><line stroke="black" stroke-dasharray="5,3" x1="2862.992056" x2="2940.94481" y1="372.047235" y2="372.047235" /><marker id="id5" markerHeight="10" markerWidth="10" refX="5" refY="5"><circle cx="5" cy="5" fill="#000000" opacity="0.5" r="5" stroke-width="0" /></marker><line marker-end="url(#id5)" stroke="black" stroke-dasharray="5,3" x1="2940.94481" x2="2940.94481" y1="372.047235" y2="407.480305" /><line stroke="black" stroke-dasharray="5,3" x1="1303.936976" x2="2940.94481" y1="265.748025" y2="265.748025" /><marker id="id6" markerHeight="10" markerWidth="10" refX="5" refY="5"><circle cx="5" cy="5" fill="#000000" opacity="0.5" r="5" stroke-width="0" /></marker><line marker-end="url(#id6)" stroke="black" stroke-dasharray="5,3" x1="2940.94481" x2="2940.94481" y1="265.748025" y2="407.480305" /></g><g><line stroke="black" stroke-dasharray="5,3" x1="559.842506" x2="3437.00779" y1="194.881885" y2="194.881885" /><marker id="id7" markerHeight="10" markerWidth="10" refX="5" refY="5"><circle cx="5" cy="5" fill="#000000" opacity="0.5" r="5" stroke-width="0" /></marker><line marker-end="url(#id7)" stroke="black" stroke-dasharray="5,3" x1="3437.00779" x2="3437.00779" y1="194.881885" y2="442.913375" /><line stroke="black" stroke-dasharray="5,3" x1="1303.936976" x2="3437.00779" y1="265.748025" y2="265.748025" /><marker id="id8" markerHeight="10" markerWidth="10" refX="5" refY="5"><circle cx="5" cy="5" fill="#000000" opacity="0.5" r="5" stroke-width="0" /></marker><line marker-end="url(#id8)" stroke="black" stroke-dasharray="5,3" x1="3437.00779" x2="3437.00779" y1="265.748025" y2="442.913375" /><line stroke="black" stroke-dasharray="5,3" x1="2862.992056" x2="3437.00779" y1="372.047235" y2="372.047235" /><marker id="id9" markerHeight="10" markerWidth="10" refX="5" refY="5"><circle cx="5" cy="5" fill="#000000" opacity="0.5" r="5" stroke-width="0" /></marker><line marker-end="url(#id9)" stroke="black" stroke-dasharray="5,3" x1="3437.00779" x2="3437.00779" y1="372.047235" y2="442.913375" /><line stroke="black" stroke-dasharray="5,3" x1="3359.055036" x2="3437.00779" y1="407.480305" y2="407.480305" /><marker id="id10" markerHeight="10" markerWidth="10" refX="5" refY="5"><circle cx="5" cy="5" fill="#000000" opacity="0.5" r="5" stroke-width="0" /></marker><line marker-end="url(#id10)" stroke="black" stroke-dasharray="5,3" x1="3437.00779" x2="3437.00779" y1="407.480305" y2="442.913375" /></g><g><line stroke="black" stroke-dasharray="5,3" x1="1303.936976" x2="3454.724325" y1="265.748025" y2="265.748025" /><marker id="id11" markerHeight="10" markerWidth="10" refX="5" refY="5"><circle cx="5" cy="5" fill="#000000" opacity="0.5" r="5" stroke-width="0" /></marker><line marker-end="url(#id11)" stroke="black" stroke-dasharray="5,3" x1="3454.724325" x2="3454.724325" y1="265.748025" y2="460.62991" /></g><g><line stroke="black" stroke-dasharray="5,3" x1="3855.118016" x2="3950.787305" y1="442.913375" y2="442.913375" /><marker id="id12" markerHeight="10" markerWidth="10" refX="5" refY="5"><circle cx="5" cy="5" fill="#000000" opacity="0.5" r="5" stroke-width="0" /></marker><line marker-end="url(#id12)" stroke="black" stroke-dasharray="5,3" x1="3950.787305" x2="3950.787305" y1="442.913375" y2="531.49605" /></g></g></g></svg>